<svg width="56" height="67" viewBox="0 0 56 67" fill="none" xmlns="http://www.w3.org/2000/svg">
<path fill-rule="evenodd" clip-rule="evenodd" d="M38.13 0.361208C36.7178 0.94384 36.0018 1.42742 34.9088 2.53656C34.1017 3.35548 33.807 3.75102 33.4276 4.52449C31.992 7.45208 32.1268 10.7253 33.7954 13.4488C35.5874 16.3738 38.5567 18.0563 41.9383 18.0631C43.532 18.0662 44.5495 17.8313 45.966 17.1333C47.2663 16.4926 48.1615 15.7899 49.0528 14.7102C49.6296 14.0114 50.6001 12.2521 50.6001 11.9048C50.6001 11.8284 50.3865 11.9657 50.1255 12.21C49.015 13.2499 47.7375 13.9256 46.1569 14.3088C44.7081 14.6602 42.8697 14.5771 41.5262 14.0996C38.9585 13.1871 37.217 11.4378 36.3474 8.89792C36.0669 8.07867 36.0361 7.83808 36.0349 6.45562C36.0335 5.0267 36.0571 4.85414 36.3807 3.92686C36.9413 2.32051 37.7475 1.16569 38.9026 0.314406C39.4909 -0.119075 39.2601 -0.105103 38.13 0.361208ZM1.95766 6.86547C1.30544 7.10232 0.641929 7.72232 0.305374 8.40935L0.0163883 8.99936L0.0175043 17.3547L0.018622 25.7101L0.282259 26.2861C0.427199 26.6029 0.740863 27.0264 0.979042 27.2272C1.82936 27.9438 1.68822 27.9342 10.811 27.8996L19.0727 27.8684L19.6173 27.5259C20.0144 27.2761 20.2499 27.0146 20.4867 26.5603L20.8116 25.9373L20.7546 17.0508C20.6905 7.08062 20.7588 7.83626 19.8544 7.09243L19.4252 6.7396L10.9213 6.71904C3.6889 6.70166 2.34849 6.72347 1.95766 6.86547ZM16.9432 10.6934L17.2126 11.0122V17.3759V23.7397L16.8862 24.0717L16.5598 24.4037H10.3453H4.13075L3.80436 24.0717L3.47797 23.7397V17.3608V10.982L3.80715 10.6472L4.13622 10.3123L10.405 10.3435L16.6737 10.3747L16.9432 10.6934ZM25.2883 11.4753C24.8798 11.6761 24.7836 12.1192 24.8241 13.6127C24.8727 15.4075 24.8936 15.4297 26.5365 15.4297C28.1794 15.4297 28.2003 15.4075 28.249 13.6127C28.2903 12.0887 28.194 11.6734 27.752 11.4686C27.4071 11.3087 25.6171 11.3135 25.2883 11.4753ZM6.93095 13.8306L6.60455 14.1626V17.3836C6.60455 20.8957 6.61271 20.9442 7.25019 21.2128C7.47665 21.3083 8.43695 21.3376 10.5464 21.3137L13.523 21.2799L13.8324 20.9651L14.1419 20.6503L14.1748 17.4658L14.2077 14.2812L13.8231 13.8899L13.4384 13.4985H10.3479H7.25734L6.93095 13.8306ZM25.0799 19.5708C24.8181 19.8371 24.8057 19.9134 24.8057 21.2684C24.8057 22.5972 24.8225 22.707 25.0704 23.0001C25.328 23.3048 25.3673 23.3133 26.5317 23.3189C27.716 23.3245 27.7311 23.3212 28.0064 22.9957C28.2765 22.6763 28.2834 22.6252 28.248 21.1964C28.2009 19.2983 28.1951 19.2919 26.5191 19.2919C25.4308 19.2919 25.3358 19.3103 25.0799 19.5708ZM39.7129 21.0632C38.8513 22.5068 37.4013 23.696 33.9063 25.8255C30.6335 27.8197 29.0112 28.9862 27.7487 30.2531C26.1528 31.8546 25.2709 33.335 24.7374 35.3089C24.4303 36.4452 24.4557 38.7221 24.7887 39.9095C25.4516 42.2736 26.9103 44.0554 29.4383 45.5893C29.5668 45.6673 29.0176 45.6928 27.6903 45.6709C25.9078 45.6415 25.726 45.6571 25.3892 45.8698C25.1881 45.9967 24.9745 46.2317 24.9146 46.392C24.8548 46.5522 24.8057 47.8068 24.8057 49.1802V51.677L25.0799 51.9558C25.3318 52.2122 25.4383 52.2347 26.3984 52.2347C27.8986 52.2347 27.864 52.2788 27.9323 50.2846L27.9882 48.6564L29.995 48.5996C32.4308 48.5307 32.2843 48.6616 32.2831 46.5549C32.2821 44.6949 32.1712 44.4357 30.984 43.5162C28.88 41.8869 27.8746 40.2645 27.6565 38.1469C27.4325 35.9716 28.4784 33.8153 30.7067 31.8577C31.838 30.8639 33.176 29.9412 35.7616 28.3717C38.4694 26.7284 39.3427 26.1109 39.8799 25.4598L40.2484 25.0133L40.7049 25.5171C41.3086 26.1833 42.1647 26.7874 44.1236 27.9292C46.3332 29.2172 48.6949 30.8151 49.7271 31.7203C50.7441 32.6124 51.8202 33.9379 52.2807 34.866C53.1582 36.6344 53.1494 38.7222 52.2565 40.6024C51.82 41.5215 50.5053 42.9457 49.3893 43.7082C48.9175 44.0306 48.6286 44.3199 48.5239 44.5747C48.3183 45.0752 48.2995 48.2585 48.5008 48.4633C48.5949 48.5591 49.2245 48.5996 50.6185 48.5996C52.4654 48.5996 52.6101 48.6147 52.7178 48.8193C52.7945 48.9653 52.8334 51.9523 52.8334 57.7168V66.3945L53.1216 66.67C53.3798 66.9168 53.5079 66.9453 54.359 66.9453C55.29 66.9453 55.3145 66.9382 55.6341 66.5743L55.9599 66.2033V56.3879V46.5723L55.6771 46.2304C55.2271 45.6863 54.8058 45.6063 52.7559 45.6752C51.7545 45.7088 50.9351 45.7032 50.9351 45.6626C50.9351 45.6222 51.167 45.4638 51.4504 45.3108C53.1134 44.4133 54.6374 42.7114 55.3714 40.9319C55.8675 39.7294 56.0058 38.9536 55.9998 37.4104C55.9949 36.1476 55.951 35.7888 55.6965 34.9333C55.3555 33.787 55.0086 33.041 54.3654 32.0714C52.9502 29.9383 51.2161 28.5117 46.7358 25.7945C42.4526 23.1968 41.4289 22.3516 40.5277 20.6694C40.4231 20.474 40.2974 20.3144 40.2485 20.3145C40.1995 20.3147 39.9585 20.6516 39.7129 21.0632ZM4.20389 31.9032C3.65897 32.0771 3.58963 32.2766 3.58963 33.6709C3.58963 35.461 3.60694 35.4793 5.29887 35.4793C7.0645 35.4793 7.05121 35.4932 7.05121 33.6468C7.05121 32.251 7.05031 32.2465 6.74938 32.0457C6.40255 31.8143 4.76913 31.7229 4.20389 31.9032ZM12.1877 31.9766C11.6761 32.1833 11.6294 32.3335 11.6294 33.7754C11.6294 35.577 11.6303 35.578 13.2891 35.6306C14.3702 35.6649 14.5073 35.646 14.7852 35.4237C15.0889 35.1806 15.091 35.169 15.091 33.7847C15.091 31.9774 15.0827 31.9678 13.4884 31.9334C12.8651 31.92 12.2799 31.9394 12.1877 31.9766ZM18.5815 31.9811C18.1048 32.0746 17.9943 32.4171 17.9943 33.8007C17.9943 35.5876 18.125 35.7044 20.0438 35.6324C21.5351 35.5766 21.5675 35.539 21.5675 33.8639C21.5675 33.1509 21.5183 32.4741 21.4582 32.3599C21.3981 32.2456 21.1896 32.0956 20.9949 32.0266C20.6569 31.9067 19.1092 31.8775 18.5815 31.9811ZM3.80324 39.27C3.57388 39.4589 3.54027 39.6018 3.49896 40.5636C3.4151 42.5133 3.6286 42.7397 5.49104 42.6752C7.01581 42.6223 7.05121 42.5798 7.05121 40.8057C7.05121 39.6634 7.02508 39.4854 6.82788 39.2848C6.63068 39.0842 6.4557 39.0576 5.33281 39.0576C4.25693 39.0576 4.02132 39.0903 3.80324 39.27ZM11.8782 39.1973C11.5335 39.3663 11.4619 39.7005 11.4619 41.1408C11.4619 42.9563 11.0127 42.8062 16.4484 42.8062H20.9077L21.1817 42.5274C21.4394 42.2653 21.4558 42.174 21.4558 41.0031C21.4558 40.3182 21.4246 39.675 21.3865 39.5739C21.2031 39.0878 20.9037 39.0572 16.4086 39.0653C13.5545 39.0704 12.0475 39.1144 11.8782 39.1973ZM1.37902 46.2807C0.722215 46.6136 0.393701 47.0196 0.170485 47.7739C-0.0577559 48.5457 -0.0564168 64.3343 0.172047 65.1066C0.379072 65.8066 0.917292 66.4762 1.50565 66.766C1.97843 66.9988 2.1045 67.0021 10.4085 66.9996C18.3145 66.9972 18.8592 66.9844 19.2794 66.7903C19.8385 66.5318 20.4028 65.8892 20.563 65.3285C20.6482 65.0304 20.6751 62.2611 20.6519 56.2008L20.6184 47.5009L20.2987 47.0317C20.0989 46.7385 19.7659 46.4545 19.4114 46.2747L18.8437 45.9869H10.4011H1.95856L1.37902 46.2807ZM16.7033 49.5259C16.8589 49.598 17.0748 49.7896 17.1831 49.9519C17.364 50.2228 17.3829 50.7369 17.4145 56.2673C17.4377 60.3498 17.4099 62.4231 17.3281 62.7077C17.2616 62.9387 17.076 63.2327 16.9157 63.3609C16.6296 63.5899 16.509 63.5943 10.4698 63.5938C4.54871 63.5935 4.30182 63.5849 3.95555 63.3701C3.61621 63.1596 3.49929 62.9314 3.45965 62.4015C3.45027 62.2765 3.4505 59.4562 3.46032 56.1341L3.47797 50.0937L3.76706 49.7443L4.05616 49.3948H10.2383C14.6723 49.3948 16.5004 49.4318 16.7033 49.5259ZM6.88606 52.8467C6.73933 52.996 6.58769 53.2899 6.54894 53.4999C6.5102 53.71 6.49434 55.2024 6.51366 56.8164L6.54872 59.751L6.91341 60.0823L7.27811 60.4136H10.3878C13.3516 60.4136 13.5112 60.4027 13.788 60.1813C14.251 59.8107 14.3094 59.3371 14.2803 56.1895L14.2535 53.2717L13.9256 52.9236L13.5976 52.5755H10.3751H7.15271L6.88606 52.8467ZM36.1357 52.7972C35.7338 52.9628 35.6651 53.1773 35.6128 54.4283C35.542 56.1231 35.5287 56.1353 33.6698 56.2105C31.6993 56.2903 31.8406 56.0038 31.8406 59.9201V63.0366L32.1239 63.3248C32.4005 63.6062 32.4391 63.6122 33.7393 63.5753C35.5001 63.5253 35.4527 63.5758 35.5255 61.6712C35.5994 59.7352 35.5687 59.7696 37.2737 59.7145C38.8651 59.663 38.9833 59.5718 38.9938 58.3846C39.003 57.3331 39.1483 56.5376 39.36 56.3802C39.4864 56.2862 40.9328 56.2231 44.2568 56.1668C48.3647 56.0972 49.0001 56.0632 49.173 55.9039C49.3404 55.7498 49.3718 55.5255 49.3718 54.4839C49.3718 53.3218 49.3551 53.2298 49.0976 52.9679L48.8236 52.6891L42.5932 52.6962C39.1666 52.7002 36.2607 52.7456 36.1357 52.7972ZM25.6698 56.426C24.8039 56.5551 24.7499 56.6689 24.7499 58.3689C24.7499 60.2392 24.7413 60.2281 26.2115 60.2827C27.9646 60.348 28.1557 60.1534 28.1557 58.3025C28.1557 57.1604 28.0549 56.7386 27.7423 56.5712C27.4514 56.4156 26.2878 56.334 25.6698 56.426ZM43.4903 59.8944C42.977 60.1262 42.8953 60.3751 42.8953 61.7061C42.8953 62.8041 42.9169 62.9256 43.1646 63.2187L43.4339 63.5375L46.1016 63.5714C49.5508 63.6154 49.3718 63.7161 49.3718 61.7315C49.3718 60.3824 49.363 60.3311 49.0839 60.0642C48.7991 59.7917 48.7697 59.7885 46.3202 59.7616C44.3885 59.7405 43.7666 59.7697 43.4903 59.8944ZM25.1759 63.5951C24.785 63.7553 24.6941 64.0752 24.6941 65.2907C24.6941 66.2717 24.7249 66.4655 24.9112 66.655C25.1974 66.9461 25.7562 67.0429 26.7695 66.9767C27.9882 66.8972 28.0444 66.8209 28.0423 65.2522C28.0404 63.9153 28.0159 63.8164 27.6326 63.6113C27.3496 63.4596 25.5354 63.4477 25.1759 63.5951Z" fill="white"/>
</svg>
